# xmcd
#
# Track frame offsets:
#	150
#	15795
#	34222
#	53427
#	67875
#	86185
#	102042
#	118467
#	139465
#	160362
#	178890
#	195947
#	213175
#	231645
#	248659
#
# Disc length: 3525 seconds
#
# Revision: 1
# Processed by: cddbd v1.5.1PL0 Copyright (c) Steve Scherf et al.
# Submitted via: audiograbber 1.83.01
#
DISCID=cc0dc30f
DTITLE=Sound Choice Country Hits 65 - SC-8298
DYEAR=1900
DGENRE=Karaoke
TTITLE0=Mindy McCready - Guys Do It All The Time
TTITLE1=Randy Travis - Are We In Trouble Now
TTITLE2=Martina McBride - A Great Disguise
TTITLE3=Blackhawk - Big Guitar
TTITLE4=Neil Diamond - Marry Me
TTITLE5=Frazier River - Tangled Up In Texas
TTITLE6=Marcus Hummon - Honky Tonk Mona Lisa
TTITLE7=Steve Azar - I Never Stopped Loving You
TTITLE8=Hal Ketchum - Hang In There, Superman
TTITLE9=Neal McCoy - Going, Going, Gone
TTITLE10=Shenandoah - Deeper Than That
TTITLE11=Kenny Chesney - Me And You
TTITLE12=Terri Clark - Suddenly Single
TTITLE13=Gretchen Peters - I Ain't Ever Satisfied
TTITLE14=MC Potts - Put Me Out Of My Misery
EXTD=
EXTT0=
EXTT1=
EXTT2=
EXTT3=
EXTT4=
EXTT5=
EXTT6=
EXTT7=
EXTT8=
EXTT9=
EXTT10=
EXTT11=
EXTT12=
EXTT13=
EXTT14=
PLAYORDER=
